HIERARCHY
ROOT Hips
{
  OFFSET 5.80788e-005 67.184 3.4734
  CHANNELS 6 Xposition Yposition Zposition Zrotation Xrotation Yrotation
  JOINT Chest
  {
    OFFSET 0 8.7983 -4.7612
    CHANNELS 6 Xposition Yposition Zposition Zrotation Xrotation Yrotation
    JOINT Chest2
    {
      OFFSET 0 8.0291 0.4195
      CHANNELS 6 Xposition Yposition Zposition Zrotation Xrotation Yrotation
      JOINT Chest3
      {
        OFFSET 0 9.9351 -2.2114
        CHANNELS 6 Xposition Yposition Zposition Zrotation Xrotation Yrotation
        JOINT Neck
        {
          OFFSET 0 22.3885 -0.4656
          CHANNELS 6 Xposition Yposition Zposition Zrotation Xrotation Yrotation
          JOINT Head
          {
            OFFSET -0.0001 12.643 3.4389
            CHANNELS 6 Xposition Yposition Zposition Zrotation Xrotation Yrotation
            End Site
            {
              OFFSET 0.0001 17.6655 0.5274
            }
          }
        }
        JOINT LeftCollar
        {
          OFFSET 2.2603 21.606 7.4023
          CHANNELS 6 Xposition Yposition Zposition Zrotation Xrotation Yrotation
          JOINT LeftShoulder
          {
            OFFSET 13.5163 -1.1332 -5.0146
            CHANNELS 6 Xposition Yposition Zposition Zrotation Xrotation Yrotation
            JOINT LeftElbow
            {
              OFFSET -0.0995 -28.05 -0.2431
              CHANNELS 6 Xposition Yposition Zposition Zrotation Xrotation Yrotation
              JOINT LeftWrist
              {
                OFFSET 0.0679 -23.3996 -0.1402
                CHANNELS 6 Xposition Yposition Zposition Zrotation Xrotation Yrotation
                JOINT LeftFinger1
                {
                  OFFSET 0.7932 -9.069 2.5189
                  CHANNELS 6 Xposition Yposition Zposition Zrotation Xrotation Yrotation
                  JOINT LeftFinger11
                  {
                    OFFSET -0.8272 -3.3923 0.5977
                    CHANNELS 6 Xposition Yposition Zposition Zrotation Xrotation Yrotation
                    JOINT LeftFinger12
                    {
                      OFFSET -0.5649 -2.3158 0.4082
                      CHANNELS 6 Xposition Yposition Zposition Zrotation Xrotation Yrotation
                      End Site
                      {
                        OFFSET -0.4919 -1.6479 0.2673
                      }
                    }
                  }
                }
                JOINT LeftFinger2
                {
                  OFFSET 0.9159 -9.2044 0.2193
                  CHANNELS 6 Xposition Yposition Zposition Zrotation Xrotation Yrotation
                  JOINT LeftFinger21
                  {
                    OFFSET 0.0117 -4.1944 -0.0248
                    CHANNELS 6 Xposition Yposition Zposition Zrotation Xrotation Yrotation
                    JOINT LeftFinger22
                    {
                      OFFSET 0.0071 -2.3249 -0.0142
                      CHANNELS 6 Xposition Yposition Zposition Zrotation Xrotation Yrotation
                      End Site
                      {
                        OFFSET -0.1475 -2.0882 0.0028
                      }
                    }
                  }
                }
                JOINT LeftFinger3
                {
                  OFFSET 0.6113 -8.7231 -2.0637
                  CHANNELS 6 Xposition Yposition Zposition Zrotation Xrotation Yrotation
                  JOINT LeftFinger31
                  {
                    OFFSET -0.1927 -3.8059 -0.2383
                    CHANNELS 6 Xposition Yposition Zposition Zrotation Xrotation Yrotation
                    JOINT LeftFinger32
                    {
                      OFFSET -0.1091 -2.1688 -0.1362
                      CHANNELS 6 Xposition Yposition Zposition Zrotation Xrotation Yrotation
                      End Site
                      {
                        OFFSET -0.2358 -1.9176 -0.0906
                      }
                    }
                  }
                }
                JOINT LeftFinger4
                {
                  OFFSET -0.6151 -8.0947 -3.5641
                  CHANNELS 6 Xposition Yposition Zposition Zrotation Xrotation Yrotation
                  JOINT LeftFinger41
                  {
                    OFFSET -0.4882 -2.341 -0.6462
                    CHANNELS 6 Xposition Yposition Zposition Zrotation Xrotation Yrotation
                    JOINT LeftFinger42
                    {
                      OFFSET -0.3575 -1.7167 -0.4742
                      CHANNELS 6 Xposition Yposition Zposition Zrotation Xrotation Yrotation
                      End Site
                      {
                        OFFSET -0.4187 -1.5237 -0.3496
                      }
                    }
                  }
                }
                JOINT LeftFinger0
                {
                  OFFSET -1.42 -1.8761 1.4223
                  CHANNELS 6 Xposition Yposition Zposition Zrotation Xrotation Yrotation
                  JOINT LeftFinger01
                  {
                    OFFSET -1.1471 -3.4929 2.6334
                    CHANNELS 6 Xposition Yposition Zposition Zrotation Xrotation Yrotation
                    JOINT LeftFinger02
                    {
                      OFFSET -0.823 -2.3 1.6571
                      CHANNELS 6 Xposition Yposition Zposition Zrotation Xrotation Yrotation
                      End Site
                      {
                        OFFSET -0.5822 -1.6914 1.1582
                      }
                    }
                  }
                }
              }
            }
          }
        }
        JOINT RightCollar
        {
          OFFSET -2.2603 21.606 7.4023
          CHANNELS 6 Xposition Yposition Zposition Zrotation Xrotation Yrotation
          JOINT RightShoulder
          {
            OFFSET -13.5187 -1.1334 -5.0155
            CHANNELS 6 Xposition Yposition Zposition Zrotation Xrotation Yrotation
            JOINT RightElbow
            {
              OFFSET 0.0994 -28.0499 -0.2431
              CHANNELS 6 Xposition Yposition Zposition Zrotation Xrotation Yrotation
              JOINT RightWrist
              {
                OFFSET -0.0679 -23.3996 -0.1402
                CHANNELS 6 Xposition Yposition Zposition Zrotation Xrotation Yrotation
                JOINT RightFinger1
                {
                  OFFSET -0.7932 -9.0691 2.5189
                  CHANNELS 6 Xposition Yposition Zposition Zrotation Xrotation Yrotation
                  JOINT RightFinger11
                  {
                    OFFSET 0.8272 -3.3923 0.5977
                    CHANNELS 6 Xposition Yposition Zposition Zrotation Xrotation Yrotation
                    JOINT RightFinger12
                    {
                      OFFSET 0.565 -2.3158 0.4082
                      CHANNELS 6 Xposition Yposition Zposition Zrotation Xrotation Yrotation
                      End Site
                      {
                        OFFSET 0.4919 -1.6479 0.2673
                      }
                    }
                  }
                }
                JOINT RightFinger2
                {
                  OFFSET -0.916 -9.2044 0.2193
                  CHANNELS 6 Xposition Yposition Zposition Zrotation Xrotation Yrotation
                  JOINT RightFinger21
                  {
                    OFFSET -0.0117 -4.1944 -0.0248
                    CHANNELS 6 Xposition Yposition Zposition Zrotation Xrotation Yrotation
                    JOINT RightFinger22
                    {
                      OFFSET -0.0071 -2.3249 -0.0142
                      CHANNELS 6 Xposition Yposition Zposition Zrotation Xrotation Yrotation
                      End Site
                      {
                        OFFSET 0.1475 -2.0882 0.0028
                      }
                    }
                  }
                }
                JOINT RightFinger3
                {
                  OFFSET -0.6113 -8.7231 -2.0637
                  CHANNELS 6 Xposition Yposition Zposition Zrotation Xrotation Yrotation
                  JOINT RightFinger31
                  {
                    OFFSET 0.1927 -3.8059 -0.2383
                    CHANNELS 6 Xposition Yposition Zposition Zrotation Xrotation Yrotation
                    JOINT RightFinger32
                    {
                      OFFSET 0.1091 -2.1688 -0.1362
                      CHANNELS 6 Xposition Yposition Zposition Zrotation Xrotation Yrotation
                      End Site
                      {
                        OFFSET 0.2358 -1.9176 -0.0906
                      }
                    }
                  }
                }
                JOINT RightFinger4
                {
                  OFFSET 0.6151 -8.0947 -3.564
                  CHANNELS 6 Xposition Yposition Zposition Zrotation Xrotation Yrotation
                  JOINT RightFinger41
                  {
                    OFFSET 0.4882 -2.341 -0.6462
                    CHANNELS 6 Xposition Yposition Zposition Zrotation Xrotation Yrotation
                    JOINT RightFinger42
                    {
                      OFFSET 0.3574 -1.7166 -0.4742
                      CHANNELS 6 Xposition Yposition Zposition Zrotation Xrotation Yrotation
                      End Site
                      {
                        OFFSET 0.4187 -1.5237 -0.3496
                      }
                    }
                  }
                }
                JOINT RightFinger0
                {
                  OFFSET 1.4199 -1.8761 1.4221
                  CHANNELS 6 Xposition Yposition Zposition Zrotation Xrotation Yrotation
                  JOINT RightFinger01
                  {
                    OFFSET 1.1472 -3.4929 2.6336
                    CHANNELS 6 Xposition Yposition Zposition Zrotation Xrotation Yrotation
                    JOINT RightFinger02
                    {
                      OFFSET 0.8229 -2.3 1.6571
                      CHANNELS 6 Xposition Yposition Zposition Zrotation Xrotation Yrotation
                      End Site
                      {
                        OFFSET 0.5822 -1.6914 1.1582
                      }
                    }
                  }
                }
              }
            }
          }
        }
      }
    }
  }
  JOINT RightHip
  {
    OFFSET -9.412 3.9771 -0.7758
    CHANNELS 6 Xposition Yposition Zposition Zrotation Xrotation Yrotation
    JOINT RightKnee
    {
      OFFSET -0.7531 -40.938 0
      CHANNELS 6 Xposition Yposition Zposition Zrotation Xrotation Yrotation
      JOINT RightAnkle
      {
        OFFSET 0 -40.1986 0
        CHANNELS 6 Xposition Yposition Zposition Zrotation Xrotation Yrotation
        JOINT RightToe
        {
          OFFSET 0 -4.4182 9.239
          CHANNELS 6 Xposition Yposition Zposition Zrotation Xrotation Yrotation
          End Site
          {
            OFFSET 0 0 6.1981
          }
        }
      }
    }
  }
  JOINT LeftHip
  {
    OFFSET 9.4119 3.9773 -0.7758
    CHANNELS 6 Xposition Yposition Zposition Zrotation Xrotation Yrotation
    JOINT LeftKnee
    {
      OFFSET 0.7532 -40.9383 0
      CHANNELS 6 Xposition Yposition Zposition Zrotation Xrotation Yrotation
      JOINT LeftAnkle
      {
        OFFSET 0 -40.1986 0
        CHANNELS 6 Xposition Yposition Zposition Zrotation Xrotation Yrotation
        JOINT LeftToe
        {
          OFFSET 0 -4.4182 9.239
          CHANNELS 6 Xposition Yposition Zposition Zrotation Xrotation Yrotation
          End Site
          {
            OFFSET 0 0 6.1981
          }
        }
      }
    }
  }
}
MOTION
Frames:	4
Frame Time:	0.0333333
5.80788e-005 67.184 3.4734 0 0 -0 0 8.7983 -4.7612 0 0 -0 0 8.0291 0.4195 0 0 -0 0 9.9351 -2.2114 0 0 -0 0 22.3885 -0.4656 0 0 -0 -0.0001 12.643 3.4389 0 0 -0 2.2603 21.606 7.4023 0 0 -12.5014 13.5163 -1.1332 -5.0146 88.1196 14.2451 10.6914 -0.0995 -28.05 -0.2431 -0.00160068 -0.00239207 0.000740045 0.0679 -23.3996 -0.1402 -8.4365e-005 7.00714e-005 -9.52055e-007 0.7932 -9.069 2.5189 9.93923e-017 -1.98785e-016 -1.59028e-015 -0.8272 -3.3923 0.5977 9.93923e-017 -5.96354e-016 -1.59028e-015 -0.5649 -2.3158 0.4082 -9.93923e-017 -5.96354e-016 -1.59028e-015 0.9159 -9.2044 0.2193 9.93923e-017 -1.98785e-016 -1.59028e-015 0.0117 -4.1944 -0.0248 -0.0128176 0.00232552 8.52707e-005 0.0071 -2.3249 -0.0142 9.93923e-017 5.96354e-016 -0 0.6113 -8.7231 -2.0637 9.93923e-017 -1.98785e-016 -1.59028e-015 -0.1927 -3.8059 -0.2383 -0.0160551 0.00299681 0.000857156 -0.1091 -2.1688 -0.1362 -2.48481e-016 0 3.18055e-015 -0.6151 -8.0947 -3.5641 9.93923e-017 -1.98785e-016 -1.59028e-015 -0.4882 -2.341 -0.6462 -0.0125865 0.0031206 0.00282719 -0.3575 -1.7167 -0.4742 0 1.98785e-016 -0 -1.42 -1.8761 1.4223 9.93923e-017 -1.98785e-016 -1.59028e-015 -1.1471 -3.4929 2.6334 9.93923e-017 -5.96354e-016 -1.59028e-015 -0.823 -2.3 1.6571 -9.93923e-017 -5.96354e-016 -1.59028e-015 -2.2603 21.606 7.4023 -0.865644 0.16582 7.03859 -13.5187 -1.1334 -5.0155 -88.0329 10.2057 -10.5567 0.0994 -28.0499 -0.2431 0.0015593 -0.00248883 -0.000788628 -0.0679 -23.3996 -0.1402 7.87605e-005 4.10553e-005 1.24965e-005 -0.7932 -9.0691 2.5189 -3.97569e-016 -7.95139e-016 3.18055e-015 0.8272 -3.3923 0.5977 -1.98785e-016 -3.97569e-016 3.18055e-015 0.565 -2.3158 0.4082 -1.98785e-016 0 3.18055e-015 -0.916 -9.2044 0.2193 -3.97569e-016 -7.95139e-016 3.18055e-015 -0.0117 -4.1944 -0.0248 0.0129473 0.00231697 -8.70038e-005 -0.0071 -2.3249 -0.0142 9.93923e-017 -7.95139e-016 1.59028e-015 -0.6113 -8.7231 -2.0637 -3.97569e-016 -7.95139e-016 3.18055e-015 0.1927 -3.8059 -0.2383 0.0163314 0.00303369 -0.000872333 0.1091 -2.1688 -0.1362 3.97569e-016 7.95139e-016 -3.18055e-015 0.6151 -8.0947 -3.564 -3.97569e-016 -7.95139e-016 3.18055e-015 0.4882 -2.341 -0.6462 0.0145763 0.00367772 -0.00326275 0.3574 -1.7166 -0.4742 9.93923e-017 -3.97569e-016 -0 1.4199 -1.8761 1.4221 -3.97569e-016 -7.95139e-016 3.18055e-015 1.1472 -3.4929 2.6336 -1.98785e-016 -3.97569e-016 3.18055e-015 0.8229 -2.3 1.6571 -1.98785e-016 0 3.18055e-015 -9.412 3.9771 -0.7758 3.42485 1.36937 -0.0640303 -0.7531 -40.938 0 0.000136572 0.69354 0.00145564 1.77636e-015 -40.1986 -1.11022e-016 -3.42573 -2.06297 -0.0607933 8.88178e-016 -4.4182 9.239 -3.19502e-024 0 -1.48106e-024 9.4119 3.9773 -0.7758 -3.42498 1.36123 0.0639712 0.7532 -40.9383 2.22045e-016 -6.769e-005 0.712612 -0.0012277 8.88179e-016 -40.1986 0 3.42582 -2.07388 0.0612819 -8.88178e-016 -4.4182 9.239 2.55305e-023 0 -2.31416e-026 
0.652252 19.595 6.44177 3.98822e-008 30.9991 -2.78731e-008 0 8.7983 -4.7612 0.175953 0.218483 -0.0631666 0 8.0291 0.4195 0.352158 0.436816 -0.127008 0 9.9351 -2.2114 0.352157 0.436817 -0.127008 0 22.3885 -0.4656 5.31689e-007 1.72428e-009 -4.44222e-008 -0.0001 12.643 3.4389 9.04056e-008 5.51849e-010 5.67023e-008 2.2603 21.606 7.4023 -29.8275 -47.323 -34.0253 13.5163 -1.1332 -5.0146 70.1282 37.6771 18.2483 -0.0995 -28.05 -0.2431 -54.9154 -6.92562 14.8611 0.0679 -23.3996 -0.1402 -2.31136 -7.62949 -2.86934 0.7932 -9.06901 2.5189 -6.36111e-015 6.36111e-015 -3.18055e-015 -0.8272 -3.3923 0.5977 -1.76556e-031 3.18055e-015 3.18055e-015 -0.5649 -2.3158 0.4082 -1.05934e-030 9.54166e-015 6.36111e-015 0.9159 -9.20441 0.2193 -6.36111e-015 6.36111e-015 -3.18055e-015 0.0117 -4.1944 -0.0248 -0.0128557 0.00233062 8.64465e-005 0.0071 -2.3249 -0.0142 -3.18055e-015 -3.18055e-015 -9.54166e-015 0.6113 -8.72311 -2.0637 -6.36111e-015 6.36111e-015 -3.18055e-015 -0.1927 -3.8059 -0.2383 -0.01603 0.00298681 0.000864006 -0.1091 -2.1688 -0.1362 -0 -3.18055e-015 -0 -0.6151 -8.09471 -3.5641 -6.36111e-015 6.36111e-015 -3.18055e-015 -0.4882 -2.341 -0.6462 -0.0125562 0.0031113 0.00282303 -0.3575 -1.7167 -0.4742 0 0 -0 -1.42 -1.8761 1.4223 -6.36111e-015 6.36111e-015 -3.18055e-015 -1.1471 -3.4929 2.6334 -1.76556e-031 3.18055e-015 3.18055e-015 -0.823 -2.3 1.6571 -1.05934e-030 9.54166e-015 6.36111e-015 -2.2603 21.606 7.4023 29.0589 -47.6365 28.2394 -13.5187 -1.1334 -5.0155 -70.6274 33.9079 -16.0685 0.0994 -28.0499 -0.2431 54.8634 -6.13789 -13.961 -0.0679 -23.3996 -0.1402 2.39192 -7.40202 3.14189 -0.7932 -9.0691 2.5189 -3.18055e-015 -6.36111e-015 -3.18055e-015 0.8272 -3.3923 0.5977 1.45789e-006 8.25975e-006 9.07968e-006 0.565 -2.3158 0.4082 -1.45789e-006 -8.25975e-006 -9.07968e-006 -0.916 -9.2044 0.2193 -3.18055e-015 -6.36111e-015 -3.18055e-015 -0.0117 -4.1944 -0.0248 0.0129257 0.0023137 -8.60937e-005 -0.0071 -2.3249 -0.0142 -3.18055e-015 9.54166e-015 3.18055e-015 -0.6113 -8.7231 -2.0637 -3.18055e-015 -6.36111e-015 -3.18055e-015 0.1927 -3.8059 -0.2383 0.0163446 0.0030468 -0.000875659 0.1091 -2.1688 -0.1362 -3.18055e-015 0 -3.18055e-015 0.6151 -8.0947 -3.564 -3.18055e-015 -6.36111e-015 -3.18055e-015 0.4882 -2.341 -0.6462 0.0145811 0.00368175 -0.00326064 0.3574 -1.7166 -0.4742 -0 0 3.18055e-015 1.4199 -1.8761 1.4221 -3.18055e-015 -6.36111e-015 -3.18055e-015 1.1472 -3.4929 2.6336 1.45789e-006 8.25975e-006 9.07968e-006 0.8229 -2.3 1.6571 -1.45789e-006 -8.25975e-006 -9.07968e-006 -9.412 3.9771 -0.7758 -134.677 -40.5787 -150.522 -0.7531 -40.938 0 -140.59 65.9033 143.109 1.77636e-015 -40.1986 0 -1.87264 -14.2735 -12.0312 0 -4.4182 9.239 7.35443e-007 -6.30607e-007 2.54815e-006 9.4119 3.9773 -0.7758 134.673 -40.5982 150.491 0.7532 -40.9383 3.55271e-015 140.647 65.9366 -143.184 0 -40.1986 0 1.87626 -14.2769 12.0195 3.55271e-015 -4.4182 9.239 4.1626e-006 -2.93396e-006 1.2314e-005 
0.652255 19.2231 6.77092 8.70328e-008 30.0575 -6.36735e-008 0 8.7983 -4.7612 0.176506 -0.0698182 -0.0604669 0 8.0291 0.4195 0.352928 -0.139838 -0.120715 0 9.9351 -2.2114 0.352938 -0.139823 -0.120719 2.22045e-016 22.3885 -0.4656 0.00033782 0.376736 -0.000115591 -0.0001 12.643 3.4389 -3.09918e-007 0.294143 -6.97129e-008 2.2603 21.606 7.4023 -29.9493 -47.052 -33.595 13.5163 -1.1332 -5.0146 70.1282 37.6771 18.2483 -0.0995 -28.05 -0.2431 -54.442 -6.95121 14.9391 0.0679 -23.3996 -0.1402 -1.19879 -6.19331 -3.30562 0.7932 -9.069 2.5189 -6.36111e-015 6.36111e-015 3.18055e-015 -0.8272 -3.3923 0.5977 3.18055e-015 3.18055e-015 -3.18055e-015 -0.5649 -2.3158 0.4082 -3.18055e-015 3.18055e-015 -3.18055e-015 0.9159 -9.2044 0.2193 -6.36111e-015 6.36111e-015 3.18055e-015 0.0117 -4.1944 -0.0248 -0.0127396 0.00231104 8.72483e-005 0.0071 -2.3249 -0.0142 -3.18055e-015 -3.18055e-015 -3.18055e-015 0.6113 -8.7231 -2.0637 -6.36111e-015 6.36111e-015 3.18055e-015 -0.1927 -3.8059 -0.2383 -0.0160878 0.00300431 0.000866903 -0.1091 -2.1688 -0.1362 -6.36111e-015 1.59028e-014 9.54166e-015 -0.6151 -8.0947 -3.5641 -6.36111e-015 6.36111e-015 3.18055e-015 -0.4882 -2.341 -0.6462 -0.0125968 0.00312433 0.00283343 -0.3575 -1.7167 -0.4742 3.18055e-015 -3.18055e-015 3.18055e-015 -1.42 -1.8761 1.4223 -6.36111e-015 6.36111e-015 3.18055e-015 -1.1471 -3.4929 2.6334 3.18055e-015 3.18055e-015 -3.18055e-015 -0.823 -2.3 1.6571 -3.18055e-015 3.18055e-015 -3.18055e-015 -2.2603 21.606 7.4023 28.934 -47.3657 27.6513 -13.5187 -1.1334 -5.0155 -70.6274 33.9078 -16.0685 0.0994 -28.0499 -0.2431 54.4944 -6.14891 -14.0301 -0.0679 -23.3996 -0.1402 1.23255 -6.03422 3.55375 -0.7932 -9.0691 2.5189 1.13891e-006 -1.87775e-006 1.93911e-006 0.8272 -3.3923 0.5977 1.52974e-006 -2.16478e-006 -6.6266e-007 0.565 -2.3158 0.4082 2.35377e-006 1.02223e-006 -3.83644e-006 -0.916 -9.2044 0.2193 1.13891e-006 -1.87775e-006 1.93911e-006 -0.0117 -4.1944 -0.0248 0.0129824 0.00231285 -9.03668e-005 -0.0071 -2.3249 -0.0142 7.68457e-006 -1.53253e-006 -1.30574e-005 -0.6113 -8.7231 -2.0637 1.13891e-006 -1.87775e-006 1.93911e-006 0.1927 -3.8059 -0.2383 0.0163964 0.00304463 -0.000876315 0.1091 -2.1688 -0.1362 7.64833e-007 7.22048e-007 -3.31287e-007 0.6151 -8.0947 -3.564 1.13891e-006 -1.87775e-006 1.93911e-006 0.4882 -2.341 -0.6462 0.0145653 0.00365893 -0.0032719 0.3574 -1.7166 -0.4742 7.64843e-007 2.14069e-006 -3.31271e-007 1.4199 -1.8761 1.4221 1.13891e-006 -1.87775e-006 1.93911e-006 1.1472 -3.4929 2.6336 1.52974e-006 -2.16478e-006 -6.6266e-007 0.8229 -2.3 1.6571 2.35377e-006 1.02223e-006 -3.83644e-006 -9.412 3.9771 -0.7758 -134.126 -40.5557 -149.724 -0.7531 -40.938 0 -141.434 65.3813 143.849 0 -40.1986 -7.10543e-015 -2.00317 -14.437 -11.5721 0 -4.4182 9.239 -8.44134e-007 -9.90769e-007 5.98058e-008 9.4119 3.9773 -0.7758 134.121 -40.5751 149.693 0.7532 -40.9383 -3.55271e-015 141.491 65.415 -143.924 1.77636e-015 -40.1986 7.10543e-015 2.0064 -14.4397 11.5598 3.55271e-015 -4.4182 9.239 1.09968e-007 -2.28653e-007 -2.60938e-006 
0.652254 18.8534 7.10032 1.62815e-007 29.1148 -5.34158e-008 2.22045e-016 8.7983 -4.7612 0.177148 -0.358297 -0.0577889 0 8.0291 0.4195 0.353949 -0.716821 -0.114474 -1.11022e-016 9.9351 -2.2114 0.353944 -0.716815 -0.114473 2.22045e-016 22.3885 -0.4656 0.000167756 0.753694 -5.4909e-005 -0.0001 12.643 3.4389 -3.05598e-007 0.588419 1.9848e-008 2.2603 21.606 7.4023 -30.0738 -46.7818 -33.1656 13.5163 -1.1332 -5.0146 70.1282 37.6771 18.2483 -0.0995 -28.05 -0.2431 -53.9683 -6.97622 15.0174 0.0679 -23.3996 -0.1402 -0.0728446 -4.7594 -3.77088 0.7932 -9.06901 2.5189 -3.18055e-015 6.36111e-015 -3.18055e-015 -0.8272 -3.3923 0.5977 -4.76485e-006 7.81856e-006 -7.34548e-006 -0.5649 -2.3158 0.4082 4.76486e-006 -7.81856e-006 7.34548e-006 0.9159 -9.20441 0.2193 -3.18055e-015 6.36111e-015 -3.18055e-015 0.0117 -4.1944 -0.0248 -0.012797 0.00232303 8.86856e-005 0.0071 -2.3249 -0.0142 -7.07339e-006 5.23182e-006 -9.15782e-006 0.6113 -8.7231 -2.0637 -3.18055e-015 6.36111e-015 -3.18055e-015 -0.1927 -3.8059 -0.2383 -0.0161014 0.00300816 0.000857963 -0.1091 -2.1688 -0.1362 -3.18055e-015 0 -6.36111e-015 -0.6151 -8.0947 -3.5641 -3.18055e-015 6.36111e-015 -3.18055e-015 -0.4882 -2.341 -0.6462 -0.0125952 0.00312513 0.0028298 -0.3575 -1.7167 -0.4742 -6.36111e-015 9.54166e-015 -0 -1.42 -1.8761 1.4223 -3.18055e-015 6.36111e-015 -3.18055e-015 -1.1471 -3.4929 2.6334 -4.76485e-006 7.81856e-006 -7.34548e-006 -0.823 -2.3 1.6571 4.76486e-006 -7.81856e-006 7.34548e-006 -2.2603 21.606 7.4023 28.8134 -47.094 27.0672 -13.5187 -1.1334 -5.0155 -70.6274 33.9078 -16.0685 0.0994 -28.0499 -0.2431 54.1253 -6.15953 -14.0993 -0.0679 -23.3996 -0.1402 0.060762 -4.66912 3.99434 -0.7932 -9.06911 2.5189 -1.14759e-006 1.8756e-006 -1.9399e-006 0.8272 -3.3923 0.5977 4.46412e-007 -2.59386e-006 -5.69296e-007 0.565 -2.3158 0.4082 -7.01175e-007 2.90239e-006 -2.50919e-006 -0.916 -9.2044 0.2193 -1.14759e-006 1.8756e-006 -1.9399e-006 -0.0117 -4.1944 -0.0248 0.0130117 0.00232362 -9.26761e-005 -0.0071 -2.3249 -0.0142 -1.05934e-030 -9.54166e-015 -6.36111e-015 -0.6113 -8.7231 -2.0637 -1.14759e-006 1.8756e-006 -1.9399e-006 0.1927 -3.8059 -0.2383 0.0162992 0.00301842 -0.000876364 0.1091 -2.1688 -0.1362 -7.65086e-007 1.0835e-006 3.31733e-007 0.6151 -8.0947 -3.564 -1.14759e-006 1.8756e-006 -1.9399e-006 0.4882 -2.341 -0.6462 0.0146083 0.00368083 -0.00328029 0.3574 -1.7166 -0.4742 0 0 -3.18055e-015 1.4199 -1.8761 1.4221 -1.14759e-006 1.8756e-006 -1.9399e-006 1.1472 -3.4929 2.6336 4.46412e-007 -2.59386e-006 -5.69296e-007 0.8229 -2.3 1.6571 -7.01175e-007 2.90239e-006 -2.50919e-006 -9.412 3.9771 -0.7758 -133.575 -40.5266 -148.927 -0.7531 -40.938 0 -142.246 64.8545 144.555 0 -40.1986 0 -2.13281 -14.6013 -11.1132 3.55271e-015 -4.4182 9.239 -2.98177e-015 2.78622e-007 3.18055e-015 9.4119 3.9773 -0.7758 133.571 -40.546 148.895 0.7532 -40.9383 0 142.303 64.8888 -144.63 3.55271e-015 -40.1986 0 2.13571 -14.6034 11.1002 -3.55271e-015 -4.4182 9.239 -2.53188e-006 4.57915e-007 1.80781e-007 
